<mxfile host="app.diagrams.net" modified="2023-09-26T15:09:48.277Z" agent="Mozilla/5.0 (X11; Linux x86_64; rv:109.0) Gecko/20100101 Firefox/114.0" etag="cZwV2RoDKK5_yIz3eaVB" version="21.8.2" type="github">
  <diagram name="Page-1" id="ph6OinrHunCrRPrF4bF1">
    <mxGraphModel dx="1434" dy="795" grid="1" gridSize="10" guides="1" tooltips="1" connect="1" arrows="1" fold="1" page="1" pageScale="1" pageWidth="850" pageHeight="1100" math="0" shadow="0">
      <root>
        <mxCell id="0" />
        <mxCell id="1" parent="0" />
        <mxCell id="Cp3NVBLOnRGW1dm8sWKQ-10" style="edgeStyle=orthogonalEdgeStyle;rounded=0;orthogonalLoop=1;jettySize=auto;html=1;endArrow=none;endFill=0;" edge="1" parent="1" source="Cp3NVBLOnRGW1dm8sWKQ-1" target="Cp3NVBLOnRGW1dm8sWKQ-9">
          <mxGeometry relative="1" as="geometry" />
        </mxCell>
        <mxCell id="Cp3NVBLOnRGW1dm8sWKQ-1" value="Artículos" style="whiteSpace=wrap;html=1;align=center;fillColor=#ffe6cc;strokeColor=#d79b00;" vertex="1" parent="1">
          <mxGeometry x="350" y="310" width="100" height="40" as="geometry" />
        </mxCell>
        <mxCell id="Cp3NVBLOnRGW1dm8sWKQ-6" style="edgeStyle=orthogonalEdgeStyle;rounded=0;orthogonalLoop=1;jettySize=auto;html=1;entryX=0;entryY=0.5;entryDx=0;entryDy=0;endArrow=none;endFill=0;" edge="1" parent="1" source="Cp3NVBLOnRGW1dm8sWKQ-3" target="Cp3NVBLOnRGW1dm8sWKQ-4">
          <mxGeometry relative="1" as="geometry" />
        </mxCell>
        <mxCell id="Cp3NVBLOnRGW1dm8sWKQ-3" value="Fábricas" style="whiteSpace=wrap;html=1;align=center;fillColor=#ffe6cc;strokeColor=#d79b00;" vertex="1" parent="1">
          <mxGeometry x="40" y="310" width="100" height="40" as="geometry" />
        </mxCell>
        <mxCell id="Cp3NVBLOnRGW1dm8sWKQ-7" style="edgeStyle=orthogonalEdgeStyle;rounded=0;orthogonalLoop=1;jettySize=auto;html=1;entryX=0;entryY=0.5;entryDx=0;entryDy=0;endArrow=none;endFill=0;" edge="1" parent="1" source="Cp3NVBLOnRGW1dm8sWKQ-4" target="Cp3NVBLOnRGW1dm8sWKQ-1">
          <mxGeometry relative="1" as="geometry" />
        </mxCell>
        <mxCell id="Cp3NVBLOnRGW1dm8sWKQ-4" value="crean" style="shape=rhombus;perimeter=rhombusPerimeter;whiteSpace=wrap;html=1;align=center;fillColor=#cce5ff;strokeColor=#36393d;" vertex="1" parent="1">
          <mxGeometry x="190" y="300" width="120" height="60" as="geometry" />
        </mxCell>
        <mxCell id="Cp3NVBLOnRGW1dm8sWKQ-13" style="edgeStyle=orthogonalEdgeStyle;rounded=0;orthogonalLoop=1;jettySize=auto;html=1;entryX=0;entryY=0.5;entryDx=0;entryDy=0;endArrow=none;endFill=0;" edge="1" parent="1" source="Cp3NVBLOnRGW1dm8sWKQ-8" target="Cp3NVBLOnRGW1dm8sWKQ-12">
          <mxGeometry relative="1" as="geometry" />
        </mxCell>
        <mxCell id="Cp3NVBLOnRGW1dm8sWKQ-8" value="Clientes" style="whiteSpace=wrap;html=1;align=center;fillColor=#ffe6cc;strokeColor=#d79b00;" vertex="1" parent="1">
          <mxGeometry x="350" y="530" width="100" height="40" as="geometry" />
        </mxCell>
        <mxCell id="Cp3NVBLOnRGW1dm8sWKQ-11" style="edgeStyle=orthogonalEdgeStyle;rounded=0;orthogonalLoop=1;jettySize=auto;html=1;entryX=0.5;entryY=0;entryDx=0;entryDy=0;endArrow=none;endFill=0;" edge="1" parent="1" source="Cp3NVBLOnRGW1dm8sWKQ-9" target="Cp3NVBLOnRGW1dm8sWKQ-8">
          <mxGeometry relative="1" as="geometry" />
        </mxCell>
        <mxCell id="Cp3NVBLOnRGW1dm8sWKQ-9" value="es pedido" style="shape=rhombus;perimeter=rhombusPerimeter;whiteSpace=wrap;html=1;align=center;fillColor=#cce5ff;strokeColor=#36393d;" vertex="1" parent="1">
          <mxGeometry x="340" y="410" width="120" height="60" as="geometry" />
        </mxCell>
        <mxCell id="Cp3NVBLOnRGW1dm8sWKQ-12" value="Número de cliente" style="ellipse;whiteSpace=wrap;html=1;align=center;fillColor=#d5e8d4;strokeColor=#82b366;" vertex="1" parent="1">
          <mxGeometry x="540" y="530" width="110" height="40" as="geometry" />
        </mxCell>
        <mxCell id="Cp3NVBLOnRGW1dm8sWKQ-16" style="edgeStyle=orthogonalEdgeStyle;rounded=0;orthogonalLoop=1;jettySize=auto;html=1;entryX=1;entryY=0.75;entryDx=0;entryDy=0;endArrow=none;endFill=0;" edge="1" parent="1" target="Cp3NVBLOnRGW1dm8sWKQ-8">
          <mxGeometry relative="1" as="geometry">
            <mxPoint x="520" y="640" as="sourcePoint" />
          </mxGeometry>
        </mxCell>
        <mxCell id="Cp3NVBLOnRGW1dm8sWKQ-17" value="Dirección de envio" style="ellipse;shape=doubleEllipse;margin=3;whiteSpace=wrap;html=1;align=center;fillColor=#e1d5e7;strokeColor=#9673a6;" vertex="1" parent="1">
          <mxGeometry x="520" y="610" width="100" height="50" as="geometry" />
        </mxCell>
      </root>
    </mxGraphModel>
  </diagram>
</mxfile>
